<svg id="Capa_1" data-name="Capa 1" xmlns="http://www.w3.org/2000/svg" viewBox="0 0 211.28 216.82"><defs><style>.cls-1{fill:#2e2c2c;}.cls-2{fill:#a36eac;}.cls-3{fill:#e87043;}.cls-4{fill:#68bc93;}.cls-5{fill:#434f9d;}.cls-6{fill:#85bf66;}.cls-7{fill:#009fe3;}.cls-8{fill:#03b7e2;}</style></defs><path class="cls-1" d="M127,233.94a65.8,65.8,0,0,1-38.07-13.42A22.79,22.79,0,0,1,87,219c-2.26-2.12-2.51-3.61-1-5.66a4.44,4.44,0,0,1,6.07-1c1.85,1.15,3.57,2.52,5.4,3.71,10,6.53,21,10.11,33,9.21,7.35-.54,14.13-2.95,19.21-8.64,8.85-9.88,7.59-22.89-2.91-31-5.94-4.58-12.78-7.57-19.45-10.84s-13.29-6.63-19.05-11.48c-13.84-11.66-11.92-30.71-2.39-39.86,6.83-6.56,15.2-8.93,24.47-8.52,7.42.33,14.11,2.61,19.55,7.9,1.19,1.15,2,2.48.84,4.05s-2.56,2.24-4.44,1.45A26.12,26.12,0,0,1,143.8,127a29.37,29.37,0,0,0-16.56-3.7c-9.08.7-15.68,6.37-17.18,14.74-1.1,6.15,1.13,11.09,5.65,15.15,5.26,4.73,11.73,7.41,18,10.46,7,3.45,14.23,6.56,20.63,11.19,20,14.41,18.47,41.48-3,53.5C143.71,232.55,135.44,233.82,127,233.94Z" transform="translate(-19.43 -17.12)"/><path class="cls-2" d="M127.51,87.5c1.76-3,2.75-6.51,4.16-9.8q7.54-17.57,15-35.18c3.37-7.93,6.73-15.86,10-23.84.61-1.47,1-1.95,2.72-1.24,4,1.61,4,1.44,2.43,5.46C155.82,38.05,149.28,53,142.94,68c-3.57,8.45-7.07,16.94-10.61,25.42-.62,1.5-1.54,2.1-3.38,2.4-5.22.87-6.66-2-8.32-6.2C116,78,110.75,66.6,105.9,55.08c-4.76-11.27-9.32-22.63-14-33.94-.57-1.38-.71-2.19,1.06-2.9,4.09-1.63,4.16-1.81,5.85,2.19,4.18,10,8.2,20,12.36,29.93,3.32,8,6.77,15.84,10.15,23.77,1.8,4.22,3.58,8.46,5.38,12.69C126.82,87.09,126.84,87.46,127.51,87.5Z" transform="translate(-19.43 -17.12)"/><path class="cls-3" d="M149,97.4c5.69-1.79,10.72-4.13,15.83-6.25C183,83.64,201.08,76,219.18,68.47c1.21-.5,2.2-1,3,.9,1.59,4.07,1.69,3.91-2.44,5.63-8.6,3.59-17.14,7.35-25.74,10.93-15,6.24-29.9,12.71-45.13,18.39-1.62.61-2.72.55-3.64-1a6.58,6.58,0,0,0-1-1.08C141,99,141.13,99,143.07,94.65c4.9-11.11,9.57-22.32,14.62-33.36,5.43-11.84,10.63-23.77,15.9-35.67.56-1.25,1.19-1.67,2.6-1.13,4.33,1.65,4.33,1.59,2.4,5.84-6.79,15-13.6,29.91-20.31,44.89-3.09,6.9-6,13.89-8.95,20.84A10.1,10.1,0,0,0,149,97.4Z" transform="translate(-19.43 -17.12)"/><path class="cls-4" d="M158.57,118.94c10.31,4.21,20.11,8.25,30,12.21,12,4.82,24,9.57,36,14.35a49,49,0,0,0,4.72,1.78c1.84.52,1.66,1.64,1.19,3-.22.6-.57,1.16-.76,1.77-.47,1.51-1.37,1.77-2.79,1.2q-9.5-3.83-19-7.59c-9.69-3.85-19.41-7.66-29.08-11.57-7.68-3.1-15.3-6.35-23-9.47a2.28,2.28,0,0,1-1.72-2c-.25-2-1.62-3.65-2.42-5.48s-.5-2.66,1.6-3.31a179.66,179.66,0,0,0,17.05-6.67c8-3.39,16.06-6.51,24.11-9.71,10.52-4.19,21.05-8.32,31.57-12.51,1.91-.77,3.07-.52,3.74,1.67,1.11,3.61,1.16,3.43-2.58,4.89-11.75,4.58-23.45,9.28-35.17,13.95q-12.87,5.13-25.73,10.28C163.78,116.64,161.38,117.73,158.57,118.94Z" transform="translate(-19.43 -17.12)"/><path class="cls-5" d="M105.15,96.9c-1.58-3.68-3.12-7.38-4.73-11.05-6.33-14.42-12.21-29-18.79-43.35-2.13-4.62-4.14-9.3-6.3-13.9-.72-1.53-.71-2.32,1.12-3,3.8-1.45,3.83-1.6,5.47,2.13q12.72,28.82,25.37,57.66c1.82,4.14,3.57,8.31,5.48,12.41a2,2,0,0,1-.71,2.85,5.87,5.87,0,0,0-1.84,1.56c-1.87,3.09-4.06,2.64-7,1.4Q68,88.85,32.65,74.44c-1.83-.75-1.76-1.42-1-2.91,2-3.84,1.93-3.8,5.92-2.13Q66.21,81.32,94.87,93.2c3.27,1.36,6.53,2.75,9.79,4.13Z" transform="translate(-19.43 -17.12)"/><path class="cls-6" d="M150,133.24c1.81.74,3.5,1.45,5.2,2.12,14.65,5.78,29.1,12,43.54,18.31,7.72,3.36,15.5,6.6,23.28,9.82,1.38.57,2.54,1.23,1.12,2.94a5.5,5.5,0,0,0-.59,1.58c-.75,2-1.69,2.16-3.79,1.23C207.93,164.46,197,160,186.1,155.38c-7.75-3.3-15.46-6.72-23.21-10-5.09-2.17-10.21-4.31-15.36-6.35-1.92-.75-1.71-1.64-.51-2.79C148.05,135.23,148.68,133.83,150,133.24Z" transform="translate(-19.43 -17.12)"/><path class="cls-7" d="M92.21,119.85c-3.67-1.61-7.33-3.24-11-4.81-14.49-6.15-28.8-12.76-43.4-18.66-4.72-1.91-9.39-3.93-14.12-5.8-1.57-.63-2.1-1.2-1.25-3,1.77-3.66,1.68-3.79,5.44-2.2q29,12.25,58,24.57c4.16,1.77,8.3,3.6,12.5,5.28a1.93,1.93,0,0,1,1.43,2.56,6,6,0,0,0-.27,2.39c.77,3.54-1.13,4.71-4.14,5.84Q59.65,139.45,24,153.21c-1.85.71-2.26.18-2.71-1.44-1.16-4.18-1.2-4.09,2.85-5.61q29-10.95,58-22c3.31-1.26,6.63-2.48,10-3.71Z" transform="translate(-19.43 -17.12)"/><path class="cls-8" d="M92.12,143c-1.81.73-3.52,1.4-5.21,2.1-14.53,6.06-29.26,11.64-44,17.18-7.88,3-9.25,3.5-17.07,6.61-1.4.55-3,2.37-5.09.52a11.18,11.18,0,0,1-1.08-2.51c-.86-2,.57-2.8,2.72-3.6,11.09-4.11,17.36-6.78,28.39-11,7.86-3,15.78-5.95,23.65-9,5.17-2,10.33-4,15.44-6.15,1.9-.79,2.37,0,2.31,1.66C92.13,140.21,92.65,141.65,92.12,143Z" transform="translate(-19.43 -17.12)"/></svg>